<svg id="visual" viewBox="0 0 900 600" width="900" height="600" xmlns="http://www.w3.org/2000/svg" xmlns:xlink="http://www.w3.org/1999/xlink" version="1.1"><path d="M0 359L21.5 363.2C43 367.3 86 375.7 128.8 367.2C171.7 358.7 214.3 333.3 257.2 330C300 326.7 343 345.3 385.8 346.3C428.7 347.3 471.3 330.7 514.2 333.8C557 337 600 360 642.8 369.5C685.7 379 728.3 375 771.2 356C814 337 857 303 878.5 286L900 269L900 601L878.5 601C857 601 814 601 771.2 601C728.3 601 685.7 601 642.8 601C600 601 557 601 514.2 601C471.3 601 428.7 601 385.8 601C343 601 300 601 257.2 601C214.3 601 171.7 601 128.8 601C86 601 43 601 21.5 601L0 601Z" fill="#b0bfd3"></path><path d="M0 404L21.5 400.2C43 396.3 86 388.7 128.8 379.8C171.7 371 214.3 361 257.2 356.7C300 352.3 343 353.7 385.8 357.3C428.7 361 471.3 367 514.2 371.2C557 375.3 600 377.7 642.8 395.3C685.7 413 728.3 446 771.2 442C814 438 857 397 878.5 376.5L900 356L900 601L878.5 601C857 601 814 601 771.2 601C728.3 601 685.7 601 642.8 601C600 601 557 601 514.2 601C471.3 601 428.7 601 385.8 601C343 601 300 601 257.2 601C214.3 601 171.7 601 128.8 601C86 601 43 601 21.5 601L0 601Z" fill="#596c8e"></path><path d="M0 516L21.5 509.2C43 502.3 86 488.7 128.8 491.7C171.7 494.7 214.3 514.3 257.2 514C300 513.7 343 493.3 385.8 480C428.7 466.7 471.3 460.3 514.2 457.2C557 454 600 454 642.8 462.3C685.7 470.7 728.3 487.3 771.2 488.8C814 490.3 857 476.7 878.5 469.8L900 463L900 601L878.5 601C857 601 814 601 771.2 601C728.3 601 685.7 601 642.8 601C600 601 557 601 514.2 601C471.3 601 428.7 601 385.8 601C343 601 300 601 257.2 601C214.3 601 171.7 601 128.8 601C86 601 43 601 21.5 601L0 601Z" fill="#03224c"></path></svg>