<svg id="visual" viewBox="0 0 900 600" width="900" height="600" xmlns="http://www.w3.org/2000/svg" xmlns:xlink="http://www.w3.org/1999/xlink" version="1.1"><rect x="0" y="0" width="900" height="600" fill="#fff"></rect><path d="M0 164L21.5 164.8C43 165.7 86 167.3 128.8 191.3C171.7 215.3 214.3 261.7 257.2 299.8C300 338 343 368 385.8 349.2C428.7 330.3 471.3 262.7 514.2 242.5C557 222.3 600 249.7 642.8 250.5C685.7 251.3 728.3 225.7 771.2 229.7C814 233.7 857 267.3 878.5 284.2L900 301L900 601L878.5 601C857 601 814 601 771.2 601C728.3 601 685.7 601 642.8 601C600 601 557 601 514.2 601C471.3 601 428.7 601 385.8 601C343 601 300 601 257.2 601C214.3 601 171.7 601 128.8 601C86 601 43 601 21.5 601L0 601Z" fill="#ddd" stroke-linecap="round" stroke-linejoin="miter"></path></svg>